<svg width="1728" height="457" viewBox="0 0 1728 457" fill="none" xmlns="http://www.w3.org/2000/svg">
<g clip-path="url(#clip0_111_51)">
<path d="M139.897 322.619L246.578 199.282V194.074H155.988L72.4762 293.009V58.6805L0 14V466.324H72.4762V354.91L158.527 466.324H252.128V461.115L139.897 322.619ZM261.938 466.324H334.393V331.994C334.393 288.244 358.057 262.735 394.779 262.735H419.949L439.31 189.331H401.835C368.125 189.331 345.902 209.632 334.393 233.657H332.392L326.347 194.074H261.938V466.324ZM555.134 471C627.094 471 668.85 427.805 675.906 378.847H600.87C596.352 391.346 583.768 405.93 555.091 405.93C519.875 405.93 504.278 383.545 503.762 351.786H679.37V322.109C679.37 248.174 634.086 189.331 553.585 189.331C468.029 189.331 424.767 253.36 424.767 330.42C424.81 408.523 472.117 471 555.134 471ZM504.321 301.232C505.827 275.19 520.413 254.889 553.628 254.889C584.327 254.889 598.805 275.19 600.418 301.232H504.321ZM776.37 471C809.07 471 832.303 459.032 846.803 441.856H848.825V463.199L923.797 466.324V287.203C923.797 230.465 880.535 189.331 808.575 189.331C731.129 189.331 695.354 244.229 695.354 295.27L767.808 284.189C767.808 267.522 781.899 253.98 806.058 253.98C834.734 253.98 846.308 268.564 846.308 287.225V309.632C835.745 305.975 809.586 301.808 789.945 301.808C717.49 301.808 684.275 335.053 684.275 385.651C684.275 434.032 717.038 471 776.37 471ZM795.99 408.523C772.842 408.523 760.774 397.064 760.774 381.462C760.774 366.879 773.853 355.42 799.002 355.42C815.189 355.157 831.268 358.169 846.329 364.285V366.901C846.308 389.263 827.7 408.523 795.99 408.523ZM1064.7 471C1089.36 471 1109.88 466.324 1118.03 463.199V396.533H1113C1104.96 399.636 1096.44 401.22 1087.85 401.209C1064.7 401.209 1054.12 390.283 1054.12 364.773V262.225H1117.02V194.007H1054.12V100.369H1049.11L980.16 126.145V194.074H933.865V262.225H976.632V384.121C976.632 433.523 1003.82 471 1064.7 471ZM1184.79 166.415C1214.48 166.415 1231.6 148.684 1231.6 119.562C1231.6 90.9276 1214.39 73.2194 1184.79 73.2194C1154.11 73.2194 1138 90.9498 1138 119.562C1138 148.706 1154.11 166.415 1184.79 166.415ZM1145.55 466.324H1222.99V194.007H1145.55V466.324ZM1323.16 466.324H1422.29L1504.81 199.282V194.074H1426.31L1374.49 390.903H1372.46L1319.13 194.074H1239.54V199.282L1323.16 466.324ZM1622.72 471C1694.66 471 1736.44 427.805 1743.47 378.847H1668.5C1663.98 391.346 1651.4 405.93 1622.72 405.93C1587.48 405.93 1571.89 383.545 1571.39 351.786H1747V322.109C1747 248.174 1701.82 189.331 1621.22 189.331C1535.66 189.331 1492.4 253.36 1492.4 330.42C1492.4 408.523 1539.68 471 1622.72 471ZM1571.89 301.232C1573.41 275.19 1588 254.889 1621.22 254.889C1651.89 254.889 1666.5 275.19 1668.01 301.232H1571.89Z" fill="black"/>
</g>
<defs>
<clipPath id="clip0_111_51">
<rect width="1728" height="457" fill="white"/>
</clipPath>
</defs>
</svg>
