<?xml version="1.0" standalone="no"?>
<!DOCTYPE svg PUBLIC "-//W3C//DTD SVG 20010904//EN"
 "http://www.w3.org/TR/2001/REC-SVG-20010904/DTD/svg10.dtd">
<svg version="1.0" xmlns="http://www.w3.org/2000/svg"
 width="288.000000pt" height="288.000000pt" viewBox="0 0 288.000000 288.000000"
 preserveAspectRatio="xMidYMid meet">
<metadata>
Created by potrace 1.14, written by Peter Selinger 2001-2017
</metadata>
<g transform="translate(0.000000,288.000000) scale(0.100000,-0.100000)"
fill="#000000" stroke="none">
<path d="M449 2854 c-144 -36 -287 -144 -366 -274 -12 -19 -34 -71 -50 -115
l-28 -80 -3 -920 c-3 -1026 -5 -996 65 -1138 51 -101 162 -211 263 -261 138
-67 115 -66 1116 -66 865 0 904 1 978 20 113 29 190 73 277 160 56 55 86 95
113 150 68 140 67 117 64 1139 l-3 916 -28 78 c-64 182 -198 318 -376 381 -55
20 -80 20 -1017 21 -677 0 -975 -3 -1005 -11z m246 -587 l170 -103 5 -210 5
-209 37 66 c71 126 240 279 359 325 24 9 49 21 55 26 7 5 20 11 30 13 11 2 43
10 72 18 67 18 202 21 281 7 34 -6 101 -27 149 -47 265 -110 429 -314 513
-638 29 -112 31 -293 6 -397 -60 -244 -217 -440 -442 -548 -81 -40 -223 -80
-283 -80 -20 0 -35 -6 -38 -15 -5 -13 -39 -15 -220 -15 l-214 0 -152 191 -153
191 -6 -144 c-4 -79 -7 -164 -8 -190 l-1 -48 -175 0 -175 0 0 408 c0 224 -3
632 -7 907 -6 464 -2 595 15 595 4 0 84 -47 177 -103z"/>
<path d="M1468 2090 c-87 -14 -205 -57 -283 -102 -92 -54 -231 -193 -279 -279
l-36 -67 2 -177 3 -178 149 172 150 171 192 0 c106 0 199 -3 208 -6 9 -4 16
-18 16 -33 0 -21 -49 -82 -215 -271 -191 -216 -214 -246 -202 -262 6 -10 109
-135 227 -277 l215 -259 41 -1 c55 -1 185 33 263 69 379 178 554 636 390 1024
-74 174 -208 316 -373 396 -56 27 -129 56 -163 65 -78 19 -229 27 -305 15z"/>
</g>
</svg>
